<?xml version="1.0" standalone="no"?>
<!DOCTYPE svg PUBLIC "-//W3C//DTD SVG 20010904//EN"
 "http://www.w3.org/TR/2001/REC-SVG-20010904/DTD/svg10.dtd">
<svg version="1.0" xmlns="http://www.w3.org/2000/svg"
 width="1080.000000pt" height="1080.000000pt" viewBox="0 0 1080.000000 1080.000000"
 preserveAspectRatio="xMidYMid meet">

<g transform="translate(0.000000,1080.000000) scale(0.100000,-0.100000)"
fill="#000000" stroke="none">
<path d="M5888 10769 c-37 -4 -91 -15 -120 -25 -75 -24 -220 -98 -303 -154
l-70 -47 -65 29 c-192 86 -384 129 -588 130 -319 1 -470 -64 -897 -383 -392
-294 -497 -353 -710 -399 -54 -11 -129 -35 -164 -52 -121 -58 -209 -173 -232
-304 l-10 -60 -147 1 c-170 0 -229 -12 -362 -77 -191 -93 -423 -390 -502 -643
-30 -94 -32 -287 -5 -355 32 -79 32 -76 -15 -94 -168 -67 -294 -209 -424 -481
-72 -150 -98 -245 -98 -365 0 -142 34 -232 129 -345 l55 -65 -51 -62 c-64 -79
-133 -219 -160 -323 -40 -154 -26 -344 32 -444 l20 -33 -59 -62 c-186 -193
-250 -424 -222 -798 l5 -66 -420 -277 c-231 -153 -430 -287 -442 -298 -34 -30
-47 -80 -33 -122 22 -66 102 -95 169 -60 49 25 925 603 953 629 61 55 212 58
483 10 236 -41 394 -25 558 57 120 61 263 228 318 372 19 50 25 58 43 53 225
-62 433 -63 572 -1 97 43 231 198 312 360 53 106 72 172 79 275 5 80 -4 137
-33 214 -4 10 9 18 48 30 132 38 255 151 333 306 122 242 110 462 -37 688 -22
34 -39 64 -37 66 2 1 27 15 54 31 107 61 222 196 272 319 55 133 74 224 74
357 1 106 -12 146 -56 175 -37 24 -110 14 -143 -19 -24 -24 -26 -35 -33 -154
-16 -262 -104 -424 -273 -504 -34 -16 -66 -29 -72 -29 -6 0 -37 21 -70 46 -95
74 -210 147 -356 227 -373 204 -723 324 -1016 348 -75 6 -146 13 -158 15 -29
5 -71 69 -85 132 -33 143 80 394 260 573 117 117 219 159 388 159 50 0 115 -5
143 -11 l51 -11 34 -74 c217 -475 691 -666 1210 -487 55 19 196 84 313 144
253 131 324 159 417 166 59 5 82 1 146 -21 105 -36 125 -34 200 19 183 128
512 344 648 425 464 276 706 381 1119 485 352 88 587 121 807 112 234 -10 371
-61 495 -186 113 -115 164 -241 163 -401 0 -101 -19 -172 -67 -254 -24 -40
-26 -42 -104 -54 -176 -28 -425 -104 -719 -222 -246 -98 -333 -145 -358 -192
-18 -34 -19 -40 -5 -80 16 -47 67 -88 107 -88 13 0 67 21 121 46 313 149 741
289 954 313 200 22 267 11 353 -60 216 -179 307 -608 165 -781 -24 -29 -39
-37 -92 -48 -35 -6 -112 -32 -171 -56 -159 -65 -660 -314 -738 -367 -58 -39
-62 -125 -9 -179 51 -51 68 -46 439 140 400 201 475 232 564 232 52 0 71 -5
108 -28 165 -106 357 -453 335 -608 -23 -169 -139 -262 -836 -674 -305 -180
-315 -186 -330 -215 -17 -31 -17 -84 0 -114 15 -28 68 -61 100 -61 41 0 636
351 971 573 24 16 27 16 70 -12 90 -58 230 -233 285 -358 13 -30 30 -85 36
-123 45 -262 -166 -610 -620 -1024 -609 -554 -838 -758 -1055 -939 -764 -638
-1425 -1023 -2090 -1217 -56 -16 -208 -52 -337 -80 -263 -56 -423 -100 -600
-166 -458 -168 -776 -332 -1725 -889 -689 -405 -999 -577 -1390 -773 -480
-240 -909 -418 -1365 -566 -251 -82 -284 -100 -296 -162 -12 -66 45 -134 113
-134 36 0 258 69 483 149 778 279 1387 583 2555 1273 992 587 1438 809 1897
947 265 79 262 79 473 37 518 -101 1094 -232 1373 -310 500 -141 1059 -412
1633 -790 210 -139 412 -285 878 -635 896 -674 1171 -869 1240 -878 94 -13
160 82 116 167 -10 19 -84 75 -217 166 -194 131 -512 365 -1018 749 -674 512
-1064 772 -1528 1020 -461 246 -853 391 -1397 519 -82 19 -190 44 -240 56 -49
11 -175 39 -280 61 -104 23 -191 42 -193 44 -2 2 21 11 50 20 122 40 392 152
552 230 532 259 1118 669 1721 1203 704 624 997 900 1132 1063 l54 66 437
-262 c653 -391 784 -465 821 -465 67 0 121 52 121 117 0 58 -29 84 -236 203
-151 86 -987 583 -1002 595 -1 1 16 33 37 71 119 206 163 420 127 604 -34 168
-160 376 -319 526 l-89 83 36 59 c138 223 107 463 -100 778 -56 85 -180 221
-237 260 l-28 19 26 57 c43 94 58 186 52 328 -12 298 -148 569 -361 715 -52
36 -149 75 -186 75 -24 0 -24 -3 -4 51 142 398 -79 859 -481 1003 -266 95
-611 92 -1072 -10 l-112 -25 -138 142 c-229 235 -415 378 -574 439 -96 37
-165 47 -251 39z m157 -254 c83 -31 176 -91 290 -187 94 -80 262 -245 254
-250 -2 -2 -51 -19 -109 -37 -58 -19 -163 -59 -234 -89 l-129 -56 -26 34
c-112 148 -304 346 -418 433 -29 22 -53 42 -53 46 0 11 139 82 209 107 85 30
135 30 216 -1z m-1005 -79 c281 -79 542 -261 776 -541 46 -55 84 -103 84 -107
0 -4 -46 -33 -102 -64 -209 -117 -608 -370 -766 -487 l-54 -39 -64 18 c-50 13
-88 16 -176 12 -97 -5 -127 -11 -213 -42 -55 -20 -161 -69 -235 -109 -314
-168 -427 -207 -632 -214 -121 -5 -144 -3 -209 17 -123 37 -187 75 -274 164
-124 125 -205 296 -205 433 0 123 52 175 211 213 260 61 396 136 791 432 310
233 436 304 599 338 24 5 118 7 209 6 142 -3 178 -7 260 -30z m-2751 -2296
c226 -46 398 -108 656 -235 297 -147 450 -249 595 -395 101 -102 154 -192 171
-296 15 -89 1 -159 -52 -263 -74 -142 -154 -199 -298 -210 -80 -6 -88 -5 -136
21 -75 40 -482 196 -695 266 -338 111 -625 167 -817 160 -56 -2 -104 -1 -105
2 -2 3 -29 25 -61 49 -109 83 -143 153 -134 281 6 90 41 187 117 325 102 182
184 256 330 294 105 28 297 28 429 1z m-314 -1205 c180 -32 412 -99 706 -206
243 -88 419 -162 485 -204 94 -61 133 -148 114 -258 -21 -118 -146 -329 -228
-384 -78 -52 -246 -55 -406 -8 -49 14 -159 57 -245 94 -251 111 -494 193 -831
280 -103 27 -119 34 -152 69 -43 47 -58 93 -58 186 0 188 115 404 235 441 61
19 244 14 380 -10z m-385 -935 c340 -91 720 -228 720 -259 0 -36 -72 -164
-121 -216 -128 -136 -265 -162 -567 -109 -153 26 -357 34 -434 15 l-36 -8 -7
76 c-12 139 26 303 93 407 43 65 136 155 155 149 7 -3 95 -27 197 -55z"/>
</g>
</svg>
